<svg xmlns="http://www.w3.org/2000/svg" viewBox="117 60 141.802 25">
  <defs>
    <style>
      .cls-1 {
        fill: #ed7f2e;
      }

      .cls-2 {
        fill: #f4f4f4;
      }
    </style>
  </defs>
  <g id="logo_footer" transform="translate(27.281 -29.731)">
    <path id="Path_1" data-name="Path 1" class="cls-1" d="M89.72,121.59a2.71,2.71,0,0,0,1.814-.481,2.255,2.255,0,0,0,.543-1.722V102.06h4.247l.031,17.514a7.539,7.539,0,0,1-.651,3.487,3.639,3.639,0,0,1-2.062,1.736,11.952,11.952,0,0,1-3.923.506Z" transform="translate(0 -10.582)"/>
    <path id="Path_2" data-name="Path 2" class="cls-1" d="M159.808,105.842V110.7h7.5v3.652h-7.5v5.052h9.36v3.719H155.53V102.06h13.643v3.782Z" transform="translate(-56.478 -10.582)"/>
    <path id="Path_3" data-name="Path 3" class="cls-1" d="M272.342,105.842H266.7V102.06h15.5v3.782h-5.58v17.3h-4.275Z" transform="translate(-151.883 -10.582)"/>
    <path id="Path_4" data-name="Path 4" class="cls-2" d="M388.25,120.51l-1.114-.217.673-3.651a35.354,35.354,0,0,0,6.117.893q3.286,0,3.286-2.729a1.786,1.786,0,0,0-.868-1.644,12.969,12.969,0,0,0-2.92-1.114,16.26,16.26,0,0,1-3.859-1.519,5.411,5.411,0,0,1-2.046-1.985,5.823,5.823,0,0,1-.635-2.852,5.751,5.751,0,0,1,1.89-4.679,8.04,8.04,0,0,1,5.3-1.581,23.354,23.354,0,0,1,2.758.17q1.425.171,4.185.666l-.632,3.646a47.6,47.6,0,0,0-5.875-.765q-3.379,0-3.379,2.228a1.621,1.621,0,0,0,.557,1.276,4.568,4.568,0,0,0,1.4.821q.837.326,2.821.946a14.737,14.737,0,0,1,3.317,1.426,4.47,4.47,0,0,1,1.7,1.843,6.584,6.584,0,0,1,.528,2.836,6.292,6.292,0,0,1-1.968,4.991,7.755,7.755,0,0,1-5.305,1.732A29.306,29.306,0,0,1,388.25,120.51Z" transform="translate(-255.021 -8.325)"/>
    <path id="Path_5" data-name="Path 5" class="cls-2" d="M511.006,120.107a6.474,6.474,0,0,1-2.775-3.519,18.5,18.5,0,0,1-.851-6.153,18.958,18.958,0,0,1,.851-6.216,6.685,6.685,0,0,1,2.775-3.6,11.547,11.547,0,0,1,10.23,0,6.706,6.706,0,0,1,2.775,3.6,18.856,18.856,0,0,1,.851,6.216,18.806,18.806,0,0,1-.821,6.077,6.53,6.53,0,0,1-2.743,3.545,9.7,9.7,0,0,1-5.178,1.2A9.914,9.914,0,0,1,511.006,120.107Zm7.734-3.27a3.809,3.809,0,0,0,1.333-2.228,17.767,17.767,0,0,0,.387-4.169,17.5,17.5,0,0,0-.405-4.2,4.236,4.236,0,0,0-1.348-2.33,4.789,4.789,0,0,0-5.178,0,4.219,4.219,0,0,0-1.348,2.33,17.494,17.494,0,0,0-.405,4.2,18.79,18.79,0,0,0,.34,3.97,4.121,4.121,0,0,0,1.286,2.33,4.056,4.056,0,0,0,2.712.81,4.324,4.324,0,0,0,2.629-.71Z" transform="translate(-358.433 -8.325)"/>
    <path id="Path_6" data-name="Path 6" class="cls-2" d="M664.814,102.06H651.36v21.079h4.278V115.7h7.5V111.98h-7.5v-6.138h14.788v17.3H674.7v-17.3h5.58V102.06Z" transform="translate(-481.996 -10.582)"/>
    <path id="Path_7" data-name="Path 7" class="cls-2" d="M867.59,91.25h4.518q4.373,0,4.373,4.265a4.545,4.545,0,0,1-1.114,3.307,4.345,4.345,0,0,1-3.261,1.134h-2.026v3.577H867.59Zm4.5,6.578q1.861,0,1.862-2.313a2.445,2.445,0,0,0-.443-1.627,1.791,1.791,0,0,0-1.418-.506h-2.008v4.445Z" transform="translate(-667.563 -1.304)"/>
    <path id="Path_8" data-name="Path 8" class="cls-2" d="M942.65,91.25h4.772q4.338,0,4.338,4.051a3.885,3.885,0,0,1-1.807,3.545l1.753,4.7h-2.735l-1.428-4.121h-2.411v4.121H942.65Zm4.807,6.037a1.61,1.61,0,0,0,1.3-.533,2.158,2.158,0,0,0,.453-1.436,2.026,2.026,0,0,0-.469-1.418,1.7,1.7,0,0,0-1.317-.515h-2.279v3.9Z" transform="translate(-731.979 -1.304)"/>
    <path id="Path_9" data-name="Path 9" class="cls-2" d="M1019.954,101.784a3.775,3.775,0,0,1-1.62-2.051,10.769,10.769,0,0,1-.5-3.587,11.039,11.039,0,0,1,.5-3.623,3.9,3.9,0,0,1,1.62-2.1,6.716,6.716,0,0,1,5.956,0,3.91,3.91,0,0,1,1.62,2.1,13.41,13.41,0,0,1,.017,7.168,3.829,3.829,0,0,1-1.6,2.069,5.672,5.672,0,0,1-3.017.7,5.8,5.8,0,0,1-2.977-.672Zm4.509-1.907a2.221,2.221,0,0,0,.777-1.3,10.384,10.384,0,0,0,.226-2.431,10.181,10.181,0,0,0-.235-2.449,2.464,2.464,0,0,0-.786-1.355,2.793,2.793,0,0,0-3.017,0,2.459,2.459,0,0,0-.786,1.355,10.3,10.3,0,0,0-.235,2.455,10.877,10.877,0,0,0,.2,2.313,2.411,2.411,0,0,0,.75,1.355,2.363,2.363,0,0,0,1.581.469,2.546,2.546,0,0,0,1.523-.411Z" transform="translate(-796.505)"/>
  </g>
</svg>
